<?xml version="1.0" encoding="iso-8859-1"?>
<!-- Generator: Adobe Illustrator 19.0.0, SVG Export Plug-In . SVG Version: 6.00 Build 0)  -->
<svg version="1.1" id="Capa_1" xmlns="http://www.w3.org/2000/svg" xmlns:xlink="http://www.w3.org/1999/xlink" x="0px" y="0px"
	 viewBox="0 0 480.045 480.045" style="enable-background:new 0 0 480.045 480.045;" xml:space="preserve">
<g>
	<g>
		<path d="M473.463,232.345c-0.007-0.001-0.014-0.003-0.021-0.004c-4.35-0.776-8.504,2.122-9.28,6.472c0,0,0,0,0,0
			c-6.678,36.976-23.328,71.426-48.152,99.632c-32.484,37.253-78.827,59.551-128.208,61.688c-17.788,0.748-35.568-1.654-52.52-7.096
			c-27.215-8.404-51.007-25.336-67.864-48.296c-23.792-32.296-28.4-71.8-12-103.112c6.329-12.68,16.452-23.074,28.96-29.736
			c9.45-4.956,20.323-6.491,30.776-4.344c1.248,0.552,2.592,1.016,3.944,1.464c9.125,2.784,15.486,11.042,15.848,20.576
			c-4.732-0.779-9.563-0.736-14.28,0.128c-11.167,3.115-20.421,10.944-25.344,21.44c-0.731,1.555-1.354,3.159-1.864,4.8
			c-0.27,0.918-0.604,1.816-1,2.688c-0.241,0.475-0.431,0.974-0.568,1.488c-3.357,14.371-1.506,29.466,5.224,42.6
			c8.156,15.602,21.002,28.252,36.728,36.168c36.8,19.256,82.744,14.16,120-13.288c45.301-33.972,68.742-89.746,61.312-145.88
			c-5.306-49.464-29.099-95.098-66.616-127.768C318.054,25.425,281.014,7.54,241.273,0.173c-4.324-0.909-8.566,1.859-9.475,6.183
			c-0.909,4.324,1.859,8.566,6.183,9.475c0.16,0.034,0.322,0.063,0.484,0.086c36.919,6.874,71.324,23.509,99.64,48.176
			c34.44,30.001,56.283,71.899,61.16,117.312c6.785,50.453-14.193,100.639-54.864,131.256c-32.288,23.792-71.792,28.392-103.104,12
			c-12.683-6.329-23.079-16.451-29.744-28.96c-4.947-9.459-6.481-20.334-4.344-30.792c0.552-1.248,1.024-2.592,1.48-3.944
			c0.267-0.917,0.601-1.813,1-2.68c2.728-6.129,7.912-10.825,14.28-12.936c1.851-0.293,3.727-0.403,5.6-0.328
			c-0.814,4.769-0.776,9.644,0.112,14.4c3.12,11.162,10.948,20.412,21.44,25.336c1.552,0.735,3.157,1.355,4.8,1.856
			c0.917,0.276,1.815,0.613,2.688,1.008c0.475,0.243,0.973,0.436,1.488,0.576c14.369,3.358,29.463,1.504,42.592-5.232
			c15.608-8.152,28.26-21.002,36.168-36.736c19.256-36.744,14.168-82.728-13.272-120c-33.985-45.305-89.777-68.739-145.92-61.288
			c-49.441,5.31-95.052,29.097-127.704,66.6c-26.545,30.481-44.433,67.522-51.8,107.264c-0.851,4.335,1.973,8.54,6.309,9.391
			c4.336,0.851,8.54-1.973,9.391-6.309c0.016-0.081,0.03-0.161,0.044-0.243c6.867-36.925,23.496-71.338,48.16-99.664
			c30.009-34.43,71.908-56.264,117.32-61.136c50.456-6.788,100.646,14.19,131.264,54.864c23.8,32.296,28.392,71.8,12,103.112
			c-6.329,12.68-16.452,23.074-28.96,29.736c-9.453,4.948-20.323,6.482-30.776,4.344c-1.248-0.552-2.6-1.032-4-1.48
			c-0.911-0.265-1.802-0.596-2.664-0.992c-6.126-2.734-10.823-7.915-12.944-14.28c-0.304-1.891-0.414-3.807-0.328-5.72
			c16.482,2.635,32.665-6.189,39.376-21.472c0.742-1.552,1.37-3.157,1.88-4.8c0.271-0.915,0.605-1.811,1-2.68
			c0.234-0.475,0.424-0.97,0.568-1.48c3.35-14.371,1.5-29.464-5.224-42.6c-8.164-15.599-21.011-28.248-36.736-36.168
			c-36.744-19.248-82.728-14.16-120.056,13.344c-25.566,18.939-44.457,45.506-53.952,75.872c-5.922,18.71-8.579,38.3-7.856,57.912
			c2.302,53.825,26.595,104.345,67.2,139.752c30.373,26.725,67.472,44.639,107.288,51.808c0.467,0.086,0.941,0.129,1.416,0.128
			c4.418-0.014,7.989-3.607,7.975-8.025c-0.012-3.859-2.777-7.159-6.575-7.847c-36.969-6.67-71.414-23.312-99.616-48.128
			c-37.26-32.48-59.562-78.825-61.696-128.208c-0.705-17.786,1.696-35.559,7.096-52.52c8.404-27.215,25.336-51.007,48.296-67.864
			c32.296-23.792,71.792-28.384,103.112-12c12.679,6.334,23.074,16.455,29.744,28.96c4.944,9.46,6.475,20.335,4.336,30.792
			c-0.552,1.24-1.016,2.584-1.464,3.928c-0.323,1.056-0.722,2.088-1.192,3.088c-3.361,7.751-10.992,12.776-19.44,12.8
			c2.582-16.459-6.253-32.592-21.512-39.28c-1.553-0.737-3.157-1.36-4.8-1.864c-0.917-0.276-1.815-0.613-2.688-1.008
			c-0.471-0.236-0.964-0.426-1.472-0.568c-14.37-3.342-29.458-1.488-42.592,5.232c-15.604,8.154-28.255,21.001-36.168,36.728
			c-19.256,36.752-14.16,82.736,13.336,120.048c18.92,25.565,45.462,44.469,75.808,53.992c16.875,5.361,34.486,8.041,52.192,7.944
			c1.904,0,3.816,0,5.736-0.088c53.832-2.304,104.359-26.603,139.768-67.216c26.733-30.374,44.659-67.475,51.84-107.296
			C480.694,237.298,477.81,233.134,473.463,232.345z"/>
	</g>
</g>
<g>
</g>
<g>
</g>
<g>
</g>
<g>
</g>
<g>
</g>
<g>
</g>
<g>
</g>
<g>
</g>
<g>
</g>
<g>
</g>
<g>
</g>
<g>
</g>
<g>
</g>
<g>
</g>
<g>
</g>
</svg>
