<?xml version="1.0" encoding="iso-8859-1"?>
<!-- Generator: Adobe Illustrator 19.0.0, SVG Export Plug-In . SVG Version: 6.00 Build 0)  -->
<svg version="1.1" id="Capa_1" xmlns="http://www.w3.org/2000/svg" xmlns:xlink="http://www.w3.org/1999/xlink" x="0px" y="0px"
	 viewBox="0 0 512 512" style="enable-background:new 0 0 512 512;" xml:space="preserve">
<g>
	<g>
		<path d="M508.096,348.272l-68.846-53.998c-3.676-2.884-8.841-2.898-12.533-0.036l-55.783,43.249
			c-0.106,0.081-0.209,0.165-0.311,0.251l-13.253,10.276c-4.448,3.448-5.258,9.85-1.809,14.297
			c2.758,3.557,7.402,4.778,11.427,3.366v48.7c-89.917-7.604-133.68-57.141-133.68-151.158c0-56.385,28.078-82.163,51.633-93.859
			c12.656-6.284,27.431-10.081,42.726-10.979c4.794-0.28,9.669-0.283,14.486-0.009c13.923,0.8,26.134-7.576,30.415-20.83
			c4.266-13.208-0.734-27.098-12.439-34.562c-22.051-14.069-46.41-22.694-72.398-25.635c-7.147-0.809-14.429-1.164-21.824-1.112
			c-0.146-0.006-0.289-0.022-0.436-0.022H82.886c-5.628,0-10.191,4.562-10.191,10.191s4.562,10.191,10.191,10.191h91.339
			c-18.179,7.749-34.831,17.338-49.859,28.721H10.191C4.562,125.313,0,129.875,0,135.504c0,5.628,4.562,10.191,10.191,10.191h90.882
			c-6.101,6.15-11.869,12.653-17.253,19.543c-21.588,27.63-37.434,61.269-47.101,99.98c-18.891,75.66-8.315,148.275-6.003,162.063
			c0.823,4.909,5.073,8.505,10.05,8.505h91.354c0.015,0,0.03,0.002,0.045,0.002c0.013,0,0.028-0.002,0.042-0.002h84.386
			c0.003,0,0.006,0,0.009,0c0.004,0,0.008,0,0.012,0h175.392v0.004h96.74c5.628,0,10.191-4.562,10.191-10.191v-59.536
			c0.939,0.275,1.904,0.42,2.867,0.42c3.024,0,6.016-1.34,8.027-3.904C513.301,358.15,512.526,351.745,508.096,348.272z
			 M49.547,415.409c-6.465-48.23-21.718-243.849,144.17-304.649c24.107-8.832,47.056-13.551,68.75-14.163h3.002
			c0.361,0,0.717-0.02,1.069-0.057c30.094-0.135,57.728,7.74,82.631,23.628c5.841,3.726,4.541,9.449,4.003,11.114
			c-0.543,1.683-2.861,7.149-9.858,6.745c-5.48-0.311-11.023-0.31-16.485-0.004c-34.151,0.041-79.206,8.727-109.668,21.154
			c-34.488,14.064-62.043,35.112-79.686,60.868c-18.316,26.742-28.135,61.908-28.401,101.699
			c-0.192,30.164,4.928,62.491,10.783,93.666H49.547z M140.598,415.408c-5.956-31.342-11.332-63.913-11.143-93.534
			c0.237-35.708,8.825-66.939,24.835-90.314c15.382-22.455,39.783-40.959,70.568-53.513c3.175-1.295,6.554-2.548,10.08-3.754
			c-13.231,10.282-24.867,23.45-36.671,43.85c-14.814,25.623-18.801,55.314-20.511,75.42c-2.467,29.063-2.549,80.435,20.109,121.845
			H140.598z M221.774,415.409L221.774,415.409c-26.201-37.701-26.179-91.053-23.713-120.121
			c1.545-18.158,5.075-44.853,17.846-66.941c0.405-0.699,0.807-1.376,1.21-2.054c-2.77,11.45-4.191,23.798-4.191,36.929
			c0,58.95,16.751,103.584,49.79,132.664c8.61,7.578,18.324,14.09,29.112,19.524H221.774z M439.901,415.408h-13.88v-30.572h13.88
			V415.408z M478.554,415.409h-18.272v-40.762c0-5.628-4.562-10.191-10.191-10.191h-34.261c-5.628,0-10.191,4.562-10.191,10.191
			v40.762h-13.635c-1.542,0-3.09-0.03-4.637-0.053v-64.82l45.556-35.32l45.63,35.788V415.409z"/>
	</g>
</g>
<g>
	<g>
		<path d="M51.975,76.215c-13.114,0-13.136,20.381,0,20.381C65.09,96.596,65.111,76.215,51.975,76.215z"/>
	</g>
</g>
<g>
</g>
<g>
</g>
<g>
</g>
<g>
</g>
<g>
</g>
<g>
</g>
<g>
</g>
<g>
</g>
<g>
</g>
<g>
</g>
<g>
</g>
<g>
</g>
<g>
</g>
<g>
</g>
<g>
</g>
</svg>
